<?xml version="1.0" encoding="UTF-8"?>
<svg xmlns="http://www.w3.org/2000/svg" xmlns:xlink="http://www.w3.org/1999/xlink" width="16pt" height="16pt" viewBox="0 0 16 16" version="1.1">
<g id="surface1">
<path style=" stroke:none;fill-rule:nonzero;fill:rgb(0%,0%,0%);fill-opacity:1;" d="M 0.929688 0.0625 C 0.554688 0.195312 0.285156 0.445312 0.0976562 0.816406 L 0 1.015625 L 0 6.617188 L 0.105469 6.832031 C 0.242188 7.109375 0.515625 7.382812 0.792969 7.519531 L 1.007812 7.621094 L 6.667969 7.621094 L 6.882812 7.519531 C 7.160156 7.382812 7.433594 7.109375 7.570312 6.832031 L 7.675781 6.617188 L 7.675781 1.015625 L 7.570312 0.800781 C 7.433594 0.523438 7.160156 0.25 6.882812 0.113281 L 6.667969 0.0117188 L 3.890625 0.00390625 C 1.257812 -0.00390625 1.105469 -0.00390625 0.929688 0.0625 Z M 6.648438 0.515625 C 6.890625 0.628906 7.03125 0.761719 7.140625 0.992188 L 7.242188 1.195312 L 7.242188 6.4375 L 7.140625 6.640625 C 7.03125 6.871094 6.890625 7.003906 6.648438 7.117188 C 6.488281 7.191406 6.449219 7.191406 3.835938 7.191406 L 1.1875 7.191406 L 0.984375 7.089844 C 0.753906 6.980469 0.621094 6.839844 0.507812 6.597656 C 0.433594 6.441406 0.433594 6.386719 0.421875 3.929688 C 0.414062 2.234375 0.425781 1.351562 0.449219 1.226562 C 0.53125 0.859375 0.796875 0.574219 1.164062 0.472656 C 1.292969 0.4375 1.910156 0.425781 3.910156 0.433594 C 6.441406 0.441406 6.488281 0.441406 6.648438 0.515625 Z M 6.648438 0.515625 "/>
<path style=" stroke:none;fill-rule:nonzero;fill:rgb(0%,0%,0%);fill-opacity:1;" d="M 3.699219 2.226562 C 3.671875 2.253906 3.65625 2.464844 3.65625 2.945312 L 3.65625 3.617188 L 3.019531 3.625 L 2.382812 3.636719 L 2.355469 3.742188 C 2.339844 3.808594 2.34375 3.882812 2.371094 3.9375 L 2.414062 4.03125 L 3.039062 4.042969 L 3.65625 4.050781 L 3.65625 4.726562 C 3.65625 5.476562 3.652344 5.449219 3.886719 5.449219 C 4.082031 5.449219 4.089844 5.425781 4.089844 4.707031 L 4.089844 4.050781 L 4.679688 4.050781 C 5.339844 4.050781 5.386719 4.035156 5.386719 3.820312 C 5.386719 3.625 5.359375 3.617188 4.695312 3.617188 L 4.089844 3.617188 L 4.089844 2.9375 C 4.089844 2.300781 4.085938 2.253906 4.023438 2.21875 C 3.929688 2.167969 3.753906 2.171875 3.699219 2.226562 Z M 3.699219 2.226562 "/>
<path style=" stroke:none;fill-rule:nonzero;fill:rgb(0%,0%,0%);fill-opacity:1;" d="M 9.253906 0.0625 C 8.878906 0.195312 8.609375 0.445312 8.421875 0.816406 L 8.324219 1.015625 L 8.324219 6.617188 L 8.429688 6.832031 C 8.566406 7.109375 8.839844 7.382812 9.117188 7.519531 L 9.332031 7.621094 L 14.992188 7.621094 L 15.207031 7.519531 C 15.484375 7.382812 15.757812 7.109375 15.894531 6.832031 L 16 6.617188 L 16 1.015625 L 15.894531 0.800781 C 15.757812 0.523438 15.484375 0.25 15.207031 0.113281 L 14.992188 0.0117188 L 12.214844 0.00390625 C 9.582031 -0.00390625 9.429688 -0.00390625 9.253906 0.0625 Z M 14.972656 0.515625 C 15.214844 0.628906 15.355469 0.761719 15.464844 0.992188 L 15.566406 1.195312 L 15.566406 6.4375 L 15.464844 6.640625 C 15.355469 6.871094 15.214844 7.003906 14.972656 7.117188 C 14.8125 7.191406 14.773438 7.191406 12.164062 7.191406 L 9.511719 7.191406 L 9.308594 7.089844 C 9.078125 6.980469 8.945312 6.839844 8.832031 6.597656 C 8.757812 6.441406 8.757812 6.386719 8.746094 3.929688 C 8.738281 2.234375 8.75 1.351562 8.773438 1.226562 C 8.855469 0.859375 9.121094 0.574219 9.488281 0.472656 C 9.617188 0.4375 10.234375 0.425781 12.234375 0.433594 C 14.765625 0.441406 14.8125 0.441406 14.972656 0.515625 Z M 14.972656 0.515625 "/>
<path style=" stroke:none;fill-rule:nonzero;fill:rgb(0%,0%,0%);fill-opacity:1;" d="M 11.4375 4.089844 C 11.375 4.148438 11.367188 4.195312 11.382812 4.292969 C 11.394531 4.363281 11.421875 4.433594 11.449219 4.453125 C 11.472656 4.464844 11.914062 4.480469 12.421875 4.480469 C 13.300781 4.480469 13.351562 4.476562 13.386719 4.414062 C 13.40625 4.371094 13.421875 4.296875 13.421875 4.238281 C 13.421875 4.027344 13.433594 4.03125 12.4375 4.019531 C 11.535156 4.011719 11.515625 4.011719 11.4375 4.089844 Z M 11.4375 4.089844 "/>
<path style=" stroke:none;fill-rule:nonzero;fill:rgb(0%,0%,0%);fill-opacity:1;" d="M 0.929688 8.460938 C 0.554688 8.597656 0.285156 8.847656 0.0976562 9.21875 L 0 9.417969 L 0 14.984375 L 0.105469 15.199219 C 0.242188 15.476562 0.515625 15.75 0.792969 15.882812 L 1.007812 15.988281 L 6.667969 15.988281 L 6.882812 15.882812 C 7.160156 15.75 7.433594 15.476562 7.570312 15.199219 L 7.675781 14.984375 L 7.675781 9.417969 L 7.570312 9.203125 C 7.433594 8.925781 7.160156 8.652344 6.882812 8.515625 L 6.667969 8.414062 L 3.890625 8.40625 C 1.257812 8.398438 1.105469 8.398438 0.929688 8.460938 Z M 6.648438 8.917969 C 6.890625 9.03125 7.03125 9.164062 7.140625 9.394531 L 7.242188 9.597656 L 7.242188 14.804688 L 7.140625 15.007812 C 7.03125 15.238281 6.890625 15.371094 6.648438 15.484375 C 6.488281 15.558594 6.449219 15.558594 3.835938 15.558594 C 1.226562 15.558594 1.1875 15.558594 1.027344 15.484375 C 0.785156 15.371094 0.644531 15.238281 0.535156 15.007812 L 0.433594 14.804688 L 0.421875 12.3125 C 0.414062 10.628906 0.425781 9.753906 0.449219 9.628906 C 0.53125 9.261719 0.796875 8.976562 1.164062 8.875 C 1.292969 8.839844 1.910156 8.828125 3.910156 8.835938 C 6.441406 8.84375 6.488281 8.84375 6.648438 8.917969 Z M 6.648438 8.917969 "/>
<path style=" stroke:none;fill-rule:nonzero;fill:rgb(0%,0%,0%);fill-opacity:1;" d="M 4.425781 11.707031 L 3.945312 12.179688 L 3.503906 11.746094 C 3.039062 11.285156 2.984375 11.257812 2.855469 11.402344 C 2.722656 11.558594 2.738281 11.582031 3.1875 12.035156 L 3.621094 12.472656 L 3.152344 12.9375 C 2.894531 13.191406 2.683594 13.429688 2.683594 13.457031 C 2.683594 13.539062 2.789062 13.671875 2.878906 13.707031 C 2.945312 13.734375 3.019531 13.671875 3.441406 13.257812 L 3.929688 12.773438 L 4.359375 13.207031 C 4.648438 13.492188 4.816406 13.636719 4.871094 13.636719 C 4.949219 13.636719 5.097656 13.484375 5.097656 13.410156 C 5.097656 13.394531 4.90625 13.175781 4.671875 12.9375 L 4.242188 12.496094 L 4.722656 12.015625 C 4.992188 11.75 5.207031 11.511719 5.207031 11.484375 C 5.207031 11.425781 5.007812 11.230469 4.949219 11.230469 C 4.921875 11.230469 4.683594 11.441406 4.425781 11.707031 Z M 4.425781 11.707031 "/>
<path style=" stroke:none;fill-rule:nonzero;fill:rgb(0%,0%,0%);fill-opacity:1;" d="M 9.253906 8.460938 C 8.878906 8.597656 8.609375 8.847656 8.421875 9.21875 L 8.324219 9.417969 L 8.324219 14.984375 L 8.429688 15.199219 C 8.566406 15.476562 8.839844 15.75 9.117188 15.882812 L 9.332031 15.988281 L 14.992188 15.988281 L 15.207031 15.882812 C 15.484375 15.75 15.757812 15.476562 15.894531 15.199219 L 16 14.984375 L 16 9.417969 L 15.894531 9.203125 C 15.757812 8.925781 15.484375 8.652344 15.207031 8.515625 L 14.992188 8.414062 L 12.214844 8.40625 C 9.582031 8.398438 9.429688 8.398438 9.253906 8.460938 Z M 14.972656 8.917969 C 15.214844 9.03125 15.355469 9.164062 15.464844 9.394531 L 15.566406 9.597656 L 15.566406 14.804688 L 15.464844 15.007812 C 15.355469 15.238281 15.214844 15.371094 14.972656 15.484375 C 14.8125 15.558594 14.773438 15.558594 12.164062 15.558594 C 9.550781 15.558594 9.511719 15.558594 9.351562 15.484375 C 9.109375 15.371094 8.96875 15.238281 8.859375 15.007812 L 8.757812 14.804688 L 8.746094 12.3125 C 8.738281 10.628906 8.75 9.753906 8.773438 9.628906 C 8.855469 9.261719 9.121094 8.976562 9.488281 8.875 C 9.617188 8.839844 10.234375 8.828125 12.234375 8.835938 C 14.765625 8.84375 14.8125 8.84375 14.972656 8.917969 Z M 14.972656 8.917969 "/>
<path style=" stroke:none;fill-rule:nonzero;fill:rgb(0%,0%,0%);fill-opacity:1;" d="M 12.917969 10.871094 C 12.867188 10.921875 12.847656 10.992188 12.847656 11.101562 C 12.847656 11.289062 12.933594 11.375 13.125 11.375 C 13.289062 11.375 13.386719 11.265625 13.386719 11.085938 C 13.386719 10.90625 13.289062 10.800781 13.117188 10.800781 C 13.039062 10.800781 12.960938 10.828125 12.917969 10.871094 Z M 12.917969 10.871094 "/>
<path style=" stroke:none;fill-rule:nonzero;fill:rgb(0%,0%,0%);fill-opacity:1;" d="M 10.582031 10.957031 L 10.460938 11.082031 L 11.859375 12.3125 C 12.625 12.992188 13.273438 13.550781 13.292969 13.558594 C 13.316406 13.5625 13.375 13.511719 13.429688 13.441406 L 13.527344 13.320312 L 12.152344 12.105469 C 11.394531 11.4375 10.757812 10.875 10.734375 10.859375 C 10.714844 10.851562 10.644531 10.894531 10.582031 10.957031 Z M 10.582031 10.957031 "/>
<path style=" stroke:none;fill-rule:nonzero;fill:rgb(0%,0%,0%);fill-opacity:1;" d="M 10.722656 12.992188 C 10.671875 13.039062 10.648438 13.109375 10.648438 13.21875 C 10.648438 13.40625 10.734375 13.492188 10.925781 13.492188 C 11.09375 13.492188 11.1875 13.386719 11.1875 13.207031 C 11.1875 13.023438 11.09375 12.917969 10.917969 12.917969 C 10.839844 12.917969 10.765625 12.949219 10.722656 12.992188 Z M 10.722656 12.992188 "/>
</g>
</svg>
